<?xml version="1.0" encoding="utf-8"?>
<!-- Generator: Adobe Illustrator 23.0.3, SVG Export Plug-In . SVG Version: 6.00 Build 0)  -->
<svg version="1.1" id="Layer_1" xmlns="http://www.w3.org/2000/svg" xmlns:xlink="http://www.w3.org/1999/xlink" x="0px" y="0px"
	 viewBox="0 0 32 33" style="enable-background:new 0 0 32 33;" xml:space="preserve">
<style type="text/css">
	.st0{fill:url(#SVGID_1_);}
</style>
<linearGradient id="SVGID_1_" gradientUnits="userSpaceOnUse" x1="-366.6562" y1="313.9702" x2="-366.6562" y2="312.9702" gradientTransform="matrix(32 0 0 -32.005 11749 10048.6152)">
	<stop  offset="0" style="stop-color:#019FCB"/>
	<stop  offset="1" style="stop-color:#0050A2"/>
</linearGradient>
<path class="st0" d="M27,0H5C2.3,0,0,2.3,0,5c0,0,0,0,0,0V27c0,2.8,2.3,5,5,5H27c2.8,0,5-2.3,5-5V5C32,2.3,29.7,0,27,0
	C27,0,27,0,27,0z M23.6,3.7l4,0h0c0.4,0,0.7,0.3,0.7,0.7c0,0,0,0,0,0v4c0,0.4-0.3,0.7-0.7,0.7c0,0,0,0,0,0l-4,0
	c-0.4,0-0.7-0.3-0.7-0.7c0,0,0,0,0,0l0-4C22.9,4,23.2,3.7,23.6,3.7C23.6,3.7,23.6,3.7,23.6,3.7L23.6,3.7z M11.1,13.3
	c0.1-0.2,0.2-0.4,0.3-0.5c1.8-2.5,5.3-3.1,7.8-1.3c2.5,1.8,3.1,5.3,1.3,7.8c-1.8,2.5-5.3,3.1-7.8,1.3c-1.5-1.1-2.3-2.8-2.3-4.6
	C10.4,15,10.6,14.1,11.1,13.3z M28.9,25.8c0,1.7-1.4,3.1-3.1,3.1H6.2c-1.7,0-3.1-1.4-3.1-3.1V12.7h4.8c-0.1,0.3-0.2,0.6-0.3,0.9
	c-0.2,0.8-0.3,1.6-0.3,2.4c0,4.8,3.9,8.8,8.7,8.8c4.8,0,8.8-3.9,8.8-8.7c0-0.8-0.1-1.6-0.3-2.4c-0.1-0.3-0.2-0.6-0.3-0.9h4.8V25.8z"
	/>
</svg>
