<?xml version="1.0" encoding="utf-8"?>
<!-- Generator: Adobe Illustrator 23.0.3, SVG Export Plug-In . SVG Version: 6.00 Build 0)  -->
<svg version="1.1" id="Layer_1" xmlns="http://www.w3.org/2000/svg" xmlns:xlink="http://www.w3.org/1999/xlink" x="0px" y="0px"
	 viewBox="0 0 136 62" style="enable-background:new 0 0 136 62;" xml:space="preserve">
<path d="M7,39.8c-0.7-0.2-1.4-0.4-2.1-0.3c-2.4-0.1-4.5,1.7-4.6,4.2c0,0.2,0,0.4,0,0.5c-0.2,2.4,1.6,4.5,3.9,4.7c0.2,0,0.4,0,0.6,0
	c0.7,0,1.4-0.1,2.1-0.4l-0.1-0.8c-0.6,0.3-1.3,0.4-2,0.4c-2.4,0-3.7-1.6-3.7-3.9c0-2.2,1.3-3.9,3.7-3.9c0.7,0,1.4,0.1,2,0.4L7,39.8z
	 M9.3,48.7h0.8v-9.8H9.3V48.7z M17.4,42.1h-0.9v3.7c0,1.1-0.5,2.4-2,2.4c-1.1,0-1.6-0.8-1.6-2.1v-4h-0.8v4.2c0,1.5,0.6,2.5,2.3,2.5
	c0.9,0.1,1.8-0.5,2.1-1.3l0,0v1.2h0.8c-0.1-0.5-0.1-1.1-0.1-1.6L17.4,42.1z M19.3,48.7h0.8v-1.1l0,0c0.4,0.8,1.2,1.3,2.1,1.2
	c1.8,0,2.7-1.5,2.7-3.5s-0.8-3.5-2.7-3.5c-0.9,0-1.7,0.5-2.1,1.3l0,0v-4.2h-0.8V48.7z M24.1,45.4c0,1.3-0.4,2.8-2,2.8
	c-1.5,0-2-1.6-2-2.8s0.5-2.8,2-2.8C23.7,42.6,24.1,44.1,24.1,45.4z M30.4,48.7h0.9v-4.3h4.6v4.3h0.9v-9.1h-0.9v4h-4.6v-4h-0.9V48.7z
	 M43.4,47.7c-0.6,0.3-1.2,0.5-1.9,0.5c-1.2,0-2.2-1-2.2-2.3c0-0.1,0-0.2,0-0.3h4.5v-0.4c0-1.8-0.8-3.3-2.6-3.3
	c-1.7,0-2.8,1.4-2.8,3.5c0,2,0.8,3.5,3,3.5c0.7,0,1.3-0.1,1.9-0.4L43.4,47.7z M39.3,44.9c-0.1-1.2,0.8-2.2,1.9-2.3
	c1.2,0,1.7,1.1,1.7,2.3H39.3z M45.4,48.7h0.8v-3.3c0-1.2,0.4-2.7,1.7-2.7c0.2,0,0.4,0,0.6,0.1v-0.9c-0.2,0-0.4-0.1-0.6-0.1
	c-0.8,0.1-1.5,0.6-1.7,1.4l0,0v-1.3h-0.8c0,0.5,0.1,1,0.1,1.5L45.4,48.7z M53.7,47.7c-0.6,0.3-1.2,0.5-1.9,0.5c-1.2,0-2.2-1-2.2-2.3
	c0-0.1,0-0.2,0-0.3h4.5v-0.4c0-1.8-0.8-3.3-2.6-3.3c-1.7,0-2.8,1.4-2.8,3.5c0,2,0.8,3.5,3,3.5c0.7,0,1.3-0.1,1.9-0.4v-0.8H53.7z
	 M49.7,44.9c-0.1-1.2,0.8-2.2,1.9-2.3c1.2,0,1.7,1.1,1.7,2.3H49.7z M61,39h-0.8v4.2l0,0c-0.4-0.8-1.2-1.3-2.1-1.3
	c-1.9,0-2.7,1.5-2.7,3.5s0.9,3.5,2.7,3.5c0.9,0.1,1.7-0.4,2.1-1.2l0,0v1.1H61V39z M56.3,45.4c0-1.3,0.4-2.8,2-2.8c1.5,0,2,1.6,2,2.8
	s-0.5,2.8-2,2.8C56.7,48.2,56.3,46.7,56.3,45.4z M63,48.7h0.8v-6.6H63V48.7z M63.8,39.2H63v1.1h0.8V39.2z M69.7,48.7h0.8
	c-0.1-0.5-0.1-0.9-0.1-1.4v-2.9c0-1.7-0.7-2.5-2.3-2.5c-0.7,0-1.3,0.2-1.9,0.5v0.8c0.6-0.4,1.3-0.6,1.9-0.5c1.1,0,1.5,0.6,1.5,1.7
	v0.3h-0.1c-1.7,0-4.1,0.1-4.1,2.3c0,0.6,0.3,1.9,2.2,1.9c0.9,0,1.7-0.5,2.1-1.2l0,0V48.7z M69.6,45.8c0,0.7,0,2.4-2,2.4
	c-0.8,0-1.4-0.3-1.4-1.2c0-1.5,1.7-1.6,3.1-1.6h0.2L69.6,45.8L69.6,45.8z"/>
<g>
	<path d="M58,17.2c-1.2,0.2-2.4,0.6-3.4,1.4v-0.8c0-0.3-0.2-0.5-0.5-0.5l0,0h-2c-0.3,0-0.5,0.2-0.5,0.5l0,0v11.9
		c0,0.3,0.2,0.5,0.5,0.5l0,0h2c0.3,0,0.5-0.2,0.5-0.5l0,0v-8.2c1-0.8,2.2-1.4,3.4-1.5c0.3,0,0.4-0.2,0.4-0.5v-1.7
		C58.6,17.4,58.3,17.2,58,17.2C58.1,17.2,58.1,17.2,58,17.2 M42.7,24.6c-1.2,0.1-1.7,0.6-1.7,1.7c0,0.6,0.2,1.7,1.3,1.7
		c1.1-0.1,2.2-0.2,3.2-0.5v-3L42.7,24.6z M48.5,21.3v8.5c0,0.1-0.1,0.3-0.2,0.4c-0.1,0.1-0.2,0.1-0.4,0.1c-0.7-0.1-1.4-0.4-1.9-0.8
		c-1.3,0.5-2.8,0.8-4.2,0.9c-2.4,0-3.7-1.5-3.7-4.1s1.2-3.7,4.3-3.9l3.2-0.3v-0.8c0.1-0.8-0.5-1.5-1.3-1.6c-0.1,0-0.2,0-0.3,0
		c-1.4,0-3.4,0.2-4.5,0.3c-0.1,0-0.3,0-0.4-0.1c-0.1-0.1-0.2-0.2-0.2-0.3L38.8,18c0-0.2,0.2-0.5,0.4-0.5c1.6-0.3,3.2-0.4,4.8-0.5
		C47.1,17,48.5,18.4,48.5,21.3 M7.7,15.2H6.6c-0.7,0-1.5,0-2.2,0.2v5.1c0.6,0,1.7,0.1,3.2,0.1c1.9,0,3.1-1,3.1-2.7
		c0-1.4-1.1-2.7-2.5-2.7C8,15.2,7.8,15.2,7.7,15.2 M13.9,29.5c0.1,0.2,0.1,0.3,0,0.5c-0.1,0.1-0.2,0.2-0.4,0.2h-2.3
		c-0.2,0-0.4-0.1-0.4-0.3l-2.9-6.6c-1.5,0-2.7-0.1-3.4-0.1v6.5c0,0.3-0.2,0.5-0.5,0.5l0,0H2c-0.3,0-0.5-0.2-0.5-0.5l0,0V13.2
		c0-0.2,0.2-0.5,0.4-0.5c1.8-0.2,3.7-0.3,5.5-0.3c0.3,0,0.4,0,0.4,0c5,0,6.1,3,6.1,5.4c0,2-1.2,3.8-3,4.6L13.9,29.5z M71.1,17.5
		c-0.1-0.1-0.2-0.2-0.4-0.2h-1.9c-0.2,0-0.4,0.1-0.5,0.4l-2.6,9.6h-0.2l-2.6-9.6c-0.1-0.2-0.3-0.4-0.5-0.4h-1.9
		c-0.2,0-0.3,0.1-0.4,0.2C60,17.6,60,17.8,60,17.9l2.8,10.8c0.2,0.8,0.8,1.4,1.6,1.4h0.5c0,0.2-0.1,0.4-0.2,0.5v0.1
		c-0.2,0.5-0.4,1.3-1.8,1.3l-2.4-0.1c-0.1,0-0.3,0-0.4,0.1c-0.1,0.1-0.2,0.2-0.1,0.4l0.1,1.3c0,0.2,0.2,0.4,0.4,0.5
		c1.1,0.2,2.1,0.4,3.2,0.4c0.1,0,0.1,0,0.2,0c1.8,0,3.1-1.2,3.7-3.5c0.7-2.7,1.6-6.3,2.3-8.8c0.3-1.2,0.6-2.2,0.7-2.9L71,18
		C71.2,17.8,71.2,17.6,71.1,17.5 M24.2,23.7c0-2.9-0.8-4-2.8-4c-2.1,0-2.8,1-2.8,4c0,2.7,0.4,4.1,2.8,4.1S24.2,26.3,24.2,23.7
		 M27.2,23.7c0,4.7-1.8,6.8-5.8,6.8s-5.8-2.1-5.8-6.8c0-4.6,1.8-6.7,5.8-6.7C25.4,17,27.2,19.1,27.2,23.7 M36.5,28.1l0.1,1.6
		c0,0.2-0.2,0.5-0.4,0.5c-0.7,0.1-1.5,0.2-2.2,0.3c-3,0-3.9-1.1-3.9-4.8V20H29c-0.3,0-0.5-0.2-0.5-0.5v-1.7c0-0.3,0.2-0.5,0.5-0.5
		l0,0h1.1v-2c0-0.2,0.2-0.4,0.4-0.5l2-0.5c0.3-0.1,0.5,0.1,0.6,0.4v0.1v2.5h3c0.3,0,0.5,0.2,0.5,0.5l0,0v1.7c0,0.3-0.2,0.5-0.5,0.5
		h-3v5.3c0,1.8,0.1,2.4,1.3,2.4c0.5,0,1.2,0,1.6-0.1C36.3,27.6,36.5,27.8,36.5,28.1"/>
	<path d="M99.4,39.6c-9.4,0-17-7.6-17-17s7.6-17,17-17s17,7.6,17,17l0,0C116.4,32,108.8,39.6,99.4,39.6 M122,22.1L122,22.1L122,22.1
		c-1.1-0.7-2.3-1-3.5-1c0-0.2-0.2-1.3-0.2-1.5c1.2-0.3,2.2-0.9,3.1-1.8l0,0v-0.1c-0.1-0.5-0.2-1-0.4-1.4v-0.1h-0.1
		c-1.2-0.3-2.4-0.3-3.6,0c-0.1-0.2-0.5-1.2-0.6-1.4c1-0.6,1.9-1.5,2.5-2.5l0,0v-0.1c-0.2-0.4-0.4-0.9-0.7-1.3l0,0h0
		c-1.2,0-2.4,0.3-3.5,0.9c-0.1-0.1-0.8-1.1-0.9-1.2c0.8-0.9,1.5-1.9,1.8-3.1V7.4l0,0c-0.3-0.4-0.7-0.7-1-1.1l0,0h-0.1
		c-1.2,0.3-2.2,0.9-3.1,1.8c-0.1-0.1-1.1-0.9-1.2-1c0.6-1,0.9-2.2,0.9-3.4V3.6l0,0c-0.4-0.3-0.8-0.5-1.3-0.7H110h-0.1
		c-1,0.6-1.9,1.5-2.5,2.5c-0.2-0.1-1.3-0.5-1.4-0.6c0.2-0.6,0.2-1.2,0.2-1.8s-0.1-1.2-0.2-1.8V1.1h-0.1c-0.5-0.2-0.9-0.3-1.4-0.4
		h-0.1l0,0c-0.9,0.9-1.5,1.9-1.8,3.1c-0.2,0-1.3-0.2-1.5-0.2c0-1.2-0.3-2.4-0.9-3.4V0.1h-0.1c-0.5-0.1-1-0.1-1.5,0h-0.1v0.1
		c-0.6,1.1-0.9,2.2-0.9,3.4c-0.2,0-1.4,0.2-1.5,0.2c-0.3-1.2-0.9-2.2-1.8-3.1l0,0h-0.1c-0.5,0.1-1,0.2-1.4,0.4h-0.1v0.1
		c-0.1,0.5-0.2,1.1-0.2,1.7s0.1,1.2,0.2,1.8c-0.1,0.1-1.3,0.6-1.4,0.6c-0.6-1-1.5-1.9-2.5-2.5h-0.1h-0.1c-0.4,0.2-0.9,0.5-1.3,0.7
		h-0.1v0.2c0,1.2,0.3,2.3,0.9,3.4C88,7.2,87.1,7.9,87,8c-0.9-0.9-1.9-1.5-3.1-1.8h-0.1l0,0c-0.4,0.3-0.7,0.7-1.1,1l0,0v0.1
		c0.3,1.2,0.9,2.2,1.8,3.1c-0.1,0.1-0.8,1.1-0.9,1.2c-1.1-0.6-2.2-0.9-3.5-0.9H80v0.1c-0.3,0.4-0.5,0.8-0.7,1.3v0.1v0.1
		c0.6,1,1.5,1.9,2.5,2.5c-0.1,0.2-0.5,1.2-0.6,1.4c-1.2-0.3-2.4-0.3-3.6,0h-0.1v0.1c-0.2,0.5-0.3,0.9-0.4,1.4v0.1l0,0
		c0.9,0.8,1.9,1.5,3.1,1.8c0,0.2-0.2,1.3-0.2,1.5c-1.2,0-2.4,0.3-3.5,0.9h-0.1v0.1c-0.1,0.5-0.1,1,0,1.5v0.1h0.1
		c1.1,0.6,2.2,0.9,3.5,0.9c0,0.2,0.2,1.4,0.2,1.5c-1.2,0.3-2.2,1-3.1,1.8l0,0V28c0.1,0.5,0.2,1,0.4,1.4v0.1h0.1
		c1.2,0.3,2.4,0.3,3.6,0c0.1,0.2,0.5,1.2,0.6,1.4c-1,0.6-1.9,1.5-2.5,2.5v0.1v0.1c0.2,0.4,0.4,0.9,0.7,1.3l0,0h0.1
		c1.2,0,2.4-0.3,3.5-0.9c0.1,0.1,0.8,1.1,0.9,1.2c-0.9,0.9-1.5,1.9-1.8,3.1v0.1l0,0c0.3,0.4,0.7,0.7,1,1l0,0h0.1
		c1.2-0.3,2.2-0.9,3.1-1.8c0.1,0.1,1.1,0.8,1.2,0.9c-0.6,1-0.9,2.2-0.9,3.4V42h0.1c0.4,0.3,0.8,0.5,1.3,0.7h0.1h0.1
		c1-0.6,1.9-1.5,2.5-2.5c0.1,0.1,1.2,0.5,1.3,0.5c-0.2,0.6-0.2,1.2-0.2,1.8s0.1,1.2,0.2,1.8v0.1h0.1c0.5,0.2,0.9,0.3,1.4,0.4h0.1
		l0,0c0.8-0.9,1.5-1.9,1.8-3.1c0.2,0,1.4,0.2,1.5,0.2c0,1.2,0.3,2.4,0.9,3.4v0.1h0.1c0.5,0.1,1,0.1,1.5,0h0.1v-0.1
		c0.6-1.1,0.9-2.2,0.9-3.5c0.2,0,1.3-0.2,1.5-0.2c0.3,1.2,0.9,2.2,1.8,3.1l0,0h0.1c0.5-0.1,1-0.2,1.4-0.4h0.1v-0.1
		c0.2-0.6,0.2-1.2,0.2-1.8s-0.1-1.2-0.2-1.8c0.2-0.1,1.2-0.5,1.4-0.6c0.6,1,1.5,1.9,2.5,2.5l0,0h0.1c0.5-0.2,0.9-0.4,1.3-0.7l0,0
		c0,0,0-0.1,0-0.2c0-1.2-0.3-2.3-0.9-3.4c0.1-0.1,1-0.8,1.2-0.9c0.9,0.8,1.9,1.5,3.1,1.8h0.1l0,0c0.4-0.3,0.7-0.7,1-1V38v-0.1
		c-0.3-1.2-0.9-2.2-1.8-3.1c0.1-0.1,0.8-1.1,0.9-1.2c1.1,0.6,2.2,0.9,3.5,0.9h0.1l0,0c0.3-0.4,0.5-0.8,0.7-1.3v-0.1V33
		c-0.6-1-1.5-1.9-2.5-2.5c0.1-0.1,0.5-1.2,0.6-1.3c1.2,0.3,2.4,0.3,3.6,0h0.1v-0.1c0.2-0.5,0.3-0.9,0.4-1.4v-0.1l0,0
		c-0.9-0.8-1.9-1.5-3.1-1.8c0-0.2,0.2-1.3,0.2-1.5c1.2,0,2.4-0.3,3.5-0.9l0,0v-0.1c0-0.2,0-0.5,0-0.7C122.1,22.6,122,22.3,122,22.1"
		/>
	<path d="M111.3,18.1c0.2,0.1,0.2,0.2,0.3,0.4c0.9,2.8,0.9,5.7,0,8.5c0,0.2-0.1,0.4-0.3,0.5c-0.2,0.1-0.4-0.1-0.6-0.2l-5.8-3.9
		c-0.2-0.1-0.3-0.3-0.4-0.6c0-0.2,0.1-0.5,0.4-0.6l5.8-3.9C110.9,18.1,111.1,18,111.3,18.1 M109.2,31.1c-2,2.1-4.5,3.6-7.4,4.2
		c-0.2,0.1-0.4,0.1-0.5,0c-0.2-0.1-0.1-0.4-0.1-0.6l0.5-7c0-0.2,0.1-0.5,0.3-0.6c0.2-0.1,0.5-0.1,0.7,0l6.3,3
		c0.3,0.1,0.5,0.3,0.5,0.4C109.4,30.9,109.3,31,109.2,31.1 M99.4,26.7c-2.3,0-4.1-1.8-4.1-4.1c0-1.4,0.7-2.7,1.8-3.4
		c0.4-0.3,0.9-0.1,1.1,0.2s0.1,0.9-0.2,1.1c-1.1,0.7-1.4,2.2-0.7,3.4c0.7,1.1,2.2,1.4,3.4,0.7c1.1-0.7,1.4-2.2,0.7-3.4
		c-0.2-0.3-0.4-0.5-0.7-0.7c-0.4-0.3-0.5-0.8-0.2-1.1c0.3-0.4,0.7-0.5,1.1-0.2c1.9,1.2,2.4,3.8,1.2,5.7
		C102,26.1,100.8,26.7,99.4,26.7 M97.6,35.4c-0.2,0.1-0.4,0.1-0.5,0c-2.8-0.6-5.4-2.1-7.4-4.3c-0.1,0-0.2-0.1-0.2-0.3c0,0,0,0,0-0.1
		c0-0.2,0.3-0.3,0.5-0.4l6.3-3.1c0.3-0.2,0.7-0.1,0.9,0.2c0.1,0.1,0.1,0.2,0.1,0.4l0.5,7C97.8,35.1,97.7,35.3,97.6,35.4 M88.1,27.3
		c-0.3,0.2-0.5,0.3-0.6,0.2c-0.2-0.1-0.2-0.2-0.3-0.4c-0.9-2.8-0.9-5.7,0-8.5c0.1-0.3,0.2-0.4,0.3-0.4c0.2-0.1,0.4,0.1,0.6,0.2
		l5.8,3.9c0.2,0.1,0.3,0.3,0.3,0.6c0,0.2-0.1,0.4-0.3,0.6L88.1,27.3z M89.6,14.4L89.6,14.4c2-2.1,4.5-3.6,7.4-4.3
		c0.2-0.1,0.4-0.1,0.5,0s0.2,0.3,0.1,0.6l-0.5,7c0,0.4-0.3,0.6-0.6,0.7c-0.1,0-0.3,0-0.4-0.1l-6.3-3c-0.2-0.1-0.4-0.2-0.5-0.4
		C89.4,14.7,89.5,14.5,89.6,14.4 M101.3,10.1c0.2-0.1,0.4-0.1,0.5,0c2.8,0.6,5.4,2.1,7.4,4.3c0.1,0.1,0.2,0.3,0.2,0.4c0,0,0,0,0,0.1
		c0,0.2-0.3,0.3-0.5,0.4l-6.3,3c-0.2,0.1-0.5,0.1-0.7,0s-0.3-0.3-0.3-0.6l-0.5-7C101.1,10.4,101.2,10.2,101.3,10.1 M99.4,7.7
		c-8.3,0-14.9,6.7-14.9,14.9c0,8.3,6.7,14.9,14.9,14.9c8.3,0,14.9-6.7,14.9-14.9S107.6,7.7,99.4,7.7"/>
</g>
</svg>
