<?xml version="1.0" encoding="utf-8"?>
<!-- Generator: Adobe Illustrator 23.0.3, SVG Export Plug-In . SVG Version: 6.00 Build 0)  -->
<svg version="1.1" id="Layer_1" xmlns="http://www.w3.org/2000/svg" xmlns:xlink="http://www.w3.org/1999/xlink" x="0px" y="0px"
	 viewBox="0 0 18 33" style="enable-background:new 0 0 18 33;" xml:space="preserve">
<style type="text/css">
	.st0{fill:url(#SVGID_1_);}
</style>
<linearGradient id="SVGID_1_" gradientUnits="userSpaceOnUse" x1="-363.1943" y1="313.9688" x2="-363.1943" y2="312.9688" gradientTransform="matrix(17.305 0 0 -32 6293.73 10047)">
	<stop  offset="0" style="stop-color:#019FCB"/>
	<stop  offset="1" style="stop-color:#0050A2"/>
</linearGradient>
<path class="st0" d="M16.6,0l-4.1,0C7.8,0,4.8,3.1,4.8,7.9v3.6H0.7c-0.4,0-0.7,0.3-0.7,0.7v5.3c0,0.4,0.3,0.7,0.7,0.7l0,0h4.2v13.3
	c0,0.4,0.3,0.7,0.7,0.7l0,0h5.4c0.4,0,0.7-0.3,0.7-0.7c0,0,0,0,0,0V18.1h4.9c0.4,0,0.7-0.3,0.7-0.7c0,0,0,0,0,0v-5.3
	c0-0.4-0.3-0.7-0.7-0.7h-4.9V8.4c0-1.5,0.4-2.2,2.3-2.2h2.8c0.4,0,0.7-0.3,0.7-0.7c0,0,0,0,0,0V0.7C17.3,0.3,17,0,16.6,0
	C16.7,0,16.6,0,16.6,0z"/>
</svg>
