<?xml version="1.0" encoding="utf-8"?>
<!-- Generator: Adobe Illustrator 23.0.3, SVG Export Plug-In . SVG Version: 6.00 Build 0)  -->
<svg version="1.1" id="Layer_1" xmlns="http://www.w3.org/2000/svg" xmlns:xlink="http://www.w3.org/1999/xlink" x="0px" y="0px"
	 viewBox="0 0 136 62" style="enable-background:new 0 0 136 62;" xml:space="preserve">
<path d="M22.9,37.8c-0.7-0.2-1.4-0.4-2.1-0.3c-2.4-0.1-4.5,1.7-4.6,4.2c0,0.2,0,0.4,0,0.5c-0.2,2.4,1.6,4.5,3.9,4.7
	c0.2,0,0.4,0,0.6,0c0.7,0,1.4-0.1,2.1-0.4l-0.1-0.8c-0.6,0.3-1.3,0.4-2,0.4c-2.4,0-3.7-1.6-3.7-3.9c0-2.2,1.3-3.9,3.7-3.9
	c0.7,0,1.4,0.1,2,0.4L22.9,37.8z M25.2,46.7H26v-9.8h-0.8V46.7z M33.2,40h-0.8v3.7c0,1.1-0.5,2.4-2,2.4c-1.1,0-1.6-0.8-1.6-2.1v-4
	h-0.8v4.2c0,1.5,0.6,2.5,2.3,2.5c0.9,0.1,1.8-0.5,2.1-1.3h0v1.2h0.8c-0.1-0.5-0.1-1.1-0.1-1.6L33.2,40z M35.2,46.7H36v-1.1h0
	c0.4,0.8,1.2,1.3,2.1,1.2c1.8,0,2.7-1.5,2.7-3.5c0-2-0.8-3.5-2.7-3.5c-0.9,0-1.7,0.5-2.1,1.3h0v-4.2h-0.8V46.7z M40,43.4
	c0,1.3-0.4,2.8-2,2.8c-1.5,0-2-1.6-2-2.8s0.5-2.8,2-2.8C39.6,40.6,40,42.1,40,43.4z M46.3,46.7h0.9v-4.3h4.6v4.3h0.9v-9.1h-0.9v4
	h-4.6v-4h-0.9L46.3,46.7z M59.3,45.6c-0.6,0.3-1.2,0.5-1.9,0.5c-1.2,0-2.2-1-2.2-2.3c0-0.1,0-0.2,0-0.3h4.5v-0.4
	c0-1.8-0.8-3.3-2.6-3.3c-1.7,0-2.8,1.4-2.8,3.5c0,2,0.8,3.5,3,3.5c0.7,0,1.3-0.1,1.9-0.4L59.3,45.6z M55.2,42.9
	c-0.1-1.2,0.8-2.2,2-2.3c1.2,0,1.7,1.1,1.7,2.3H55.2z M61.3,46.7h0.8v-3.3c0-1.2,0.4-2.7,1.7-2.7c0.2,0,0.4,0,0.6,0.1V40
	c-0.2,0-0.4-0.1-0.6-0.1c-0.8,0.1-1.5,0.6-1.7,1.4h0V40h-0.8c0,0.5,0.1,1,0.1,1.5L61.3,46.7z M69.6,45.6c-0.6,0.3-1.2,0.5-1.9,0.5
	c-1.2,0-2.2-1-2.2-2.3c0-0.1,0-0.2,0-0.3h4.5v-0.4c0-1.8-0.8-3.3-2.6-3.3c-1.7,0-2.8,1.4-2.8,3.5c0,2,0.8,3.5,3,3.5
	c0.7,0,1.3-0.1,1.9-0.4L69.6,45.6z M65.6,42.9c-0.1-1.2,0.8-2.2,2-2.3c1.2,0,1.7,1.1,1.7,2.3H65.6z M76.9,36.9h-0.8v4.2h0
	c-0.4-0.8-1.2-1.3-2.1-1.3c-1.9,0-2.7,1.5-2.7,3.5c0,2,0.9,3.5,2.7,3.5c0.9,0.1,1.7-0.4,2.1-1.2h0v1.1h0.8V36.9z M72.2,43.4
	c0-1.3,0.4-2.8,2-2.8c1.5,0,2,1.6,2,2.8s-0.5,2.8-2,2.8C72.6,46.1,72.2,44.7,72.2,43.4z M78.9,46.7h0.8V40h-0.8V46.7z M79.7,37.2
	h-0.8v1.1h0.8V37.2z M85.6,46.7h0.8c-0.1-0.5-0.1-0.9-0.1-1.4v-2.9c0-1.7-0.7-2.5-2.3-2.5c-0.7,0-1.3,0.2-1.9,0.5v0.8
	c0.6-0.4,1.3-0.6,1.9-0.5c1.1,0,1.5,0.6,1.5,1.7v0.3h-0.2c-1.7,0-4.1,0.1-4.1,2.3c0,0.6,0.3,1.9,2.2,1.9c0.9,0,1.7-0.5,2.1-1.2h0
	V46.7z M85.5,43.7c0,0.7,0,2.4-2,2.4c-0.8,0-1.4-0.3-1.4-1.2c0-1.5,1.7-1.6,3.1-1.6h0.2L85.5,43.7z"/>
<g>
	<path d="M134.9,20.9L134.9,20.9L134.9,20.9c-1-0.7-2.2-1-3.3-1c0-0.2-0.2-1.2-0.2-1.4c1.1-0.3,2.1-0.9,2.9-1.7l0,0l0-0.1
		c-0.1-0.5-0.2-0.9-0.4-1.3l0-0.1l-0.1,0c-1.1-0.3-2.3-0.3-3.4,0c-0.1-0.1-0.5-1.2-0.5-1.3c1-0.6,1.8-1.4,2.4-2.4l0,0l0-0.1
		c-0.2-0.4-0.4-0.8-0.7-1.2l0,0h-0.1c-1.1,0-2.3,0.3-3.3,0.9c-0.1-0.1-0.8-1-0.9-1.1c0.8-0.8,1.4-1.8,1.7-2.9l0-0.1l0,0
		c-0.3-0.4-0.6-0.7-1-1l0,0l-0.1,0c-1.1,0.3-2.1,0.9-2.9,1.7c-0.1-0.1-1-0.8-1.1-0.9c0.6-1,0.9-2.1,0.9-3.2c0,0,0-0.1,0-0.1l0,0
		c-0.4-0.3-0.8-0.5-1.2-0.7l-0.1,0l0,0c-1,0.6-1.8,1.4-2.4,2.4C121,5,120,4.5,119.8,4.5c0.1-0.6,0.2-1.1,0.2-1.7
		c0-0.6-0.1-1.1-0.2-1.7l0-0.1l-0.1,0c-0.4-0.2-0.9-0.3-1.3-0.4l-0.1,0l0,0c-0.8,0.8-1.4,1.8-1.7,2.9c-0.2,0-1.3-0.2-1.4-0.2
		c0-1.1-0.3-2.3-0.9-3.3l0-0.1h-0.1c-0.5-0.1-0.9-0.1-1.4,0h-0.1l0,0.1c-0.6,1-0.9,2.1-0.9,3.3c-0.2,0-1.3,0.2-1.4,0.2
		c-0.3-1.1-0.9-2.1-1.7-2.9l0,0l-0.1,0c-0.5,0.1-0.9,0.2-1.3,0.4l-0.1,0l0,0.1C107,1.6,107,2.2,107,2.8c0,0.6,0.1,1.1,0.2,1.7
		c-0.1,0.1-1.2,0.5-1.4,0.6c-0.6-1-1.4-1.8-2.4-2.4l-0.1,0l-0.1,0c-0.4,0.2-0.8,0.4-1.2,0.7l-0.1,0v0.2c0,1.1,0.3,2.2,0.9,3.2
		c-0.1,0.1-0.9,0.7-1.1,0.8c-0.8-0.8-1.8-1.4-2.9-1.7l-0.1,0l0,0c-0.4,0.3-0.7,0.6-1,1l0,0l0,0.1c0.3,1.1,0.9,2.1,1.7,2.9
		c-0.1,0.1-0.8,1-0.9,1.2c-1-0.6-2.1-0.9-3.3-0.9h-0.1l0,0c-0.3,0.4-0.5,0.8-0.7,1.2l0,0.1l0,0.1c0.6,1,1.4,1.8,2.4,2.4
		c-0.1,0.1-0.5,1.1-0.5,1.3c-1.1-0.3-2.3-0.3-3.4,0l-0.1,0l0,0c-0.2,0.4-0.3,0.9-0.4,1.3l0,0.1l0,0c0.8,0.8,1.8,1.4,2.9,1.7
		c0,0.2-0.2,1.3-0.2,1.4c-1.1,0-2.3,0.3-3.3,0.9l-0.1,0v0.1c0,0.2,0,0.5,0,0.7c0,0.2,0,0.5,0,0.7v0.1l0.1,0c1,0.6,2.1,0.9,3.3,0.9
		c0,0.2,0.2,1.3,0.2,1.5c-1.1,0.3-2.1,0.9-2.9,1.7l0,0v0.1c0.1,0.5,0.2,0.9,0.4,1.3l0,0.1l0.1,0c1.1,0.3,2.3,0.3,3.4,0
		C96.5,28,97,29,97,29.2c-1,0.6-1.8,1.4-2.4,2.4l0,0.1l0,0.1c0.2,0.4,0.4,0.8,0.7,1.2l0,0h0.1c1.1,0,2.3-0.3,3.3-0.9
		c0.1,0.1,0.8,1,0.9,1.1c-0.8,0.8-1.4,1.8-1.7,2.9l0,0.1l0,0c0.3,0.4,0.6,0.7,1,1l0,0l0.1,0c1.1-0.3,2.1-0.9,2.9-1.7
		c0.1,0.1,1,0.8,1.2,0.9c-0.5,1-0.8,2.1-0.9,3.2v0.1l0.1,0c0.4,0.3,0.8,0.5,1.2,0.7l0.1,0l0.1,0c1-0.6,1.8-1.4,2.4-2.4l1.3,0.5
		c-0.1,0.6-0.2,1.1-0.2,1.7c0,0.6,0.1,1.1,0.2,1.7l0,0.1l0.1,0c0.4,0.2,0.9,0.3,1.3,0.4l0.1,0l0,0c0.8-0.8,1.4-1.8,1.7-2.9
		c0.2,0,1.3,0.2,1.5,0.2c0,1.1,0.3,2.3,0.9,3.3l0,0.1l0.1,0c0.5,0.1,0.9,0.1,1.4,0l0.1,0l0-0.1c0.6-1,0.9-2.1,0.9-3.3
		c0.2,0,1.2-0.2,1.4-0.2c0.3,1.1,0.9,2.1,1.7,2.9l0,0h0.1c0.5-0.1,0.9-0.2,1.4-0.4l0.1,0l0-0.1c0.2-0.5,0.2-1.1,0.2-1.7
		c0-0.6-0.1-1.2-0.2-1.7c0.1-0.1,1.2-0.5,1.3-0.6c0.6,1,1.4,1.8,2.4,2.4l0,0l0.1,0c0.4-0.2,0.8-0.4,1.2-0.7l0,0c0,0,0-0.1,0-0.2
		c0-1.1-0.3-2.2-0.9-3.2c0.1-0.1,1-0.8,1.1-0.9c0.8,0.8,1.8,1.4,2.9,1.7l0.1,0l0,0c0.4-0.3,0.7-0.6,1-1l0-0.1l0-0.1
		c-0.3-1.1-0.9-2.1-1.7-2.9c0.1-0.1,0.8-1,0.9-1.2c1,0.6,2.1,0.9,3.3,0.9h0.1l0,0c0.3-0.4,0.5-0.8,0.7-1.2l0,0l0-0.1
		c-0.6-1-1.4-1.8-2.4-2.4c0.1-0.1,0.5-1.1,0.5-1.3c1.1,0.3,2.3,0.3,3.4,0l0,0l0-0.1c0.2-0.4,0.3-0.9,0.4-1.3l0-0.1l0,0
		c-0.8-0.8-1.8-1.4-2.9-1.7c0-0.2,0.2-1.2,0.2-1.4c1.2,0,2.3-0.3,3.3-0.9l0,0v-0.1c0-0.2,0-0.5,0-0.7C135,21.3,135,21.1,134.9,20.9
		 M113.5,37.5c-8.9,0-16.1-7.2-16.1-16.1s7.2-16.1,16.1-16.1c8.9,0,16.1,7.2,16.1,16.1c0,0,0,0,0,0
		C129.6,30.3,122.4,37.5,113.5,37.5"/>
	<path d="M113.5,7.3c-7.8,0-14.2,6.3-14.2,14.2c0,7.8,6.3,14.2,14.2,14.2c7.8,0,14.2-6.3,14.2-14.2c0,0,0,0,0,0
		C127.7,13.6,121.3,7.3,113.5,7.3 M115.3,9.5c0.2-0.1,0.3-0.1,0.5,0c2.7,0.6,5.1,2,7,4c0.1,0.1,0.2,0.3,0.2,0.4c0,0,0,0,0,0.1
		c0,0.2-0.3,0.3-0.5,0.4l-6,2.9c-0.2,0.1-0.4,0.1-0.6,0c-0.2-0.1-0.3-0.3-0.3-0.6l-0.5-6.6C115.1,9.8,115.2,9.6,115.3,9.5
		 M104.2,13.6L104.2,13.6c1.8-2,4.3-3.4,7-4c0.2-0.1,0.3-0.1,0.5,0c0.1,0.1,0.2,0.3,0.1,0.6l-0.5,6.6c0,0.3-0.2,0.6-0.6,0.6
		c-0.1,0-0.3,0-0.4-0.1l-6-2.9c-0.2-0.1-0.4-0.2-0.5-0.4C104,13.9,104.1,13.7,104.2,13.6 M102.8,25.8c-0.3,0.2-0.4,0.2-0.6,0.2
		s-0.2-0.2-0.3-0.4c-0.8-2.6-0.8-5.4,0-8.1c0.1-0.2,0.2-0.4,0.3-0.4c0.2-0.1,0.4,0.1,0.6,0.2l5.5,3.7c0.2,0.1,0.3,0.3,0.3,0.5
		c0,0.2-0.1,0.4-0.3,0.5L102.8,25.8z M111.8,33.6c-0.2,0.1-0.3,0.1-0.5,0c-2.7-0.6-5.1-2-7-4c-0.1-0.1-0.2-0.3-0.2-0.4
		c0,0,0,0,0-0.1c0-0.2,0.3-0.3,0.4-0.4l6-2.9c0.3-0.2,0.7-0.1,0.8,0.2c0.1,0.1,0.1,0.2,0.1,0.3l0.5,6.6
		C112,33.3,111.9,33.5,111.8,33.6 M113.5,25.3c-2.1,0-3.9-1.7-3.9-3.9c0-1.3,0.7-2.5,1.7-3.2c0.4-0.2,0.9-0.1,1.1,0.3
		c0.2,0.3,0.1,0.8-0.2,1c-1.1,0.7-1.4,2.1-0.7,3.2c0.7,1.1,2.1,1.4,3.2,0.7s1.4-2.1,0.7-3.2c-0.2-0.3-0.4-0.5-0.7-0.7
		c-0.3-0.3-0.4-0.7-0.2-1.1c0.2-0.3,0.7-0.4,1-0.2c1.8,1.2,2.3,3.6,1.1,5.4C116,24.7,114.8,25.3,113.5,25.3 M122.8,29.5
		c-1.8,2-4.3,3.4-7,4c-0.2,0.1-0.4,0.1-0.5,0c-0.1-0.1-0.1-0.4-0.1-0.6l0.5-6.6c0-0.2,0.1-0.4,0.3-0.6c0.2-0.1,0.4-0.1,0.6,0l6,2.9
		c0.3,0.1,0.4,0.3,0.5,0.4C123,29.2,122.9,29.4,122.8,29.5 M124.8,17.1c0.2,0.1,0.2,0.2,0.3,0.4c0.8,2.6,0.8,5.4,0,8.1
		c-0.1,0.2-0.2,0.4-0.3,0.4c-0.2,0.1-0.4-0.1-0.6-0.2l-5.5-3.7c-0.2-0.1-0.3-0.3-0.3-0.5c0-0.2,0.1-0.4,0.3-0.5l5.5-3.7
		C124.4,17.1,124.6,17,124.8,17.1"/>
	<path d="M33,26.1c-0.4,0-1.1,0.1-1.5,0.1c-1.2,0-1.3-0.6-1.3-2.3v-5h2.8c0.3,0,0.5-0.2,0.5-0.5c0,0,0,0,0,0v-1.6
		c0-0.3-0.2-0.5-0.5-0.5c0,0,0,0,0,0h-2.8V14c0-0.1-0.1-0.3-0.2-0.4c-0.1-0.1-0.3-0.1-0.4-0.1L27.8,14c-0.2,0.1-0.4,0.2-0.3,0.5v1.9
		h-1.1c-0.3,0-0.5,0.2-0.5,0.5c0,0,0,0,0,0v1.6c0,0.3,0.2,0.5,0.5,0.5c0,0,0,0,0,0h1.1v5.4c0,3.5,0.9,4.6,3.7,4.6
		c0.7,0,1.4-0.1,2.1-0.3c0.2,0,0.4-0.2,0.4-0.5l-0.1-1.5C33.5,26.3,33.3,26.1,33,26.1"/>
	<path d="M19.3,16.1c-3.8,0-5.5,1.9-5.5,6.3c0,4.4,1.7,6.4,5.5,6.4c3.8,0,5.5-2,5.5-6.4C24.7,18.1,23,16.1,19.3,16.1 M19.3,26.3
		c-2.2,0-2.7-1.4-2.7-3.9c0-2.8,0.7-3.8,2.7-3.8c1.9,0,2.6,1.1,2.6,3.8C21.9,24.9,21.5,26.3,19.3,26.3"/>
	<path d="M9.1,21.2c1.8-0.7,2.9-2.4,2.9-4.3c0-2.4-1-5.2-5.8-5.2H5.8c-1.7,0-3.5,0.1-5.2,0.3c-0.2,0-0.4,0.2-0.4,0.5v15.6
		c0,0.3,0.2,0.5,0.5,0.5c0,0,0,0,0,0h1.9c0.3,0,0.5-0.2,0.5-0.5c0,0,0,0,0,0v-6.2C3.7,22,4.9,22,6.3,22l2.8,6.2
		c0.1,0.2,0.2,0.3,0.4,0.3h2.2c0.2,0,0.3-0.1,0.4-0.2c0.1-0.1,0.1-0.3,0-0.4L9.1,21.2z M6.1,19.4c-1.4,0-2.5,0-3-0.1v-4.8
		c0.7-0.1,1.4-0.2,2.1-0.2h1c1.4-0.2,2.6,0.8,2.8,2.1c0,0.1,0,0.3,0,0.4C9,18.4,7.9,19.4,6.1,19.4"/>
	<path d="M86.3,26.1c-0.4,0-1.1,0.1-1.5,0.1c-1.2,0-1.3-0.6-1.3-2.3v-5h2.8c0.3,0,0.5-0.2,0.5-0.5c0,0,0,0,0,0v-1.6
		c0-0.3-0.2-0.5-0.5-0.5c0,0,0,0,0,0h-2.8V14c0-0.3-0.2-0.5-0.5-0.5c0,0-0.1,0-0.1,0L81.1,14c-0.2,0.1-0.4,0.2-0.4,0.5v1.9h-1.1
		c-0.3,0-0.5,0.2-0.5,0.5c0,0,0,0,0,0v1.6c0,0.3,0.2,0.5,0.5,0.5c0,0,0,0,0,0h1.1v5.4c0,3.5,0.9,4.6,3.7,4.6c0.7,0,1.4-0.1,2.1-0.3
		c0.2,0,0.4-0.2,0.4-0.5l-0.1-1.5C86.8,26.3,86.5,26.1,86.3,26.1"/>
	<path d="M73.4,18.6c1.2,0.1,2.4,0.2,3.6,0.4c0.1,0,0.3,0,0.3-0.1c0.1-0.1,0.2-0.2,0.2-0.3l0.1-1.5c0-0.2-0.2-0.4-0.4-0.5
		c-1.2-0.3-2.5-0.4-3.7-0.5c-3.8,0-5.5,1.9-5.5,6.3c0,0,0,0.1,0,0.1l0,0c0,4.4,1.7,6.3,5.5,6.3c1.3-0.1,2.5-0.2,3.7-0.5
		c0.2,0,0.4-0.2,0.4-0.5l-0.1-1.5c0-0.1-0.1-0.2-0.2-0.3c-0.1-0.1-0.2-0.1-0.3-0.1c-1.2,0.2-2.4,0.3-3.6,0.4c-1.7,0-2.5-0.7-2.6-2.8
		c0,0,0-0.1,0-0.1c0-0.1,0-0.2,0-0.2s0-0.2,0-0.3c0-0.1,0-0.1,0-0.2c0-0.1,0-0.2,0-0.3C70.8,19.6,71.5,18.6,73.4,18.6"/>
	<path d="M61.7,16.1c-1.5,0.1-3,0.2-4.5,0.5c-0.2,0-0.4,0.2-0.4,0.5l0.1,1.5c0,0.1,0.1,0.2,0.2,0.3c0.1,0.1,0.2,0.1,0.3,0.1
		c1-0.1,2.9-0.2,4.2-0.2c0.7-0.1,1.4,0.4,1.5,1.2c0,0.1,0,0.2,0,0.3V21l-3,0.2c-2.9,0.2-4.1,1.3-4.1,3.7c0,2.5,1.3,3.9,3.5,3.9
		c1.4-0.1,2.7-0.4,4-0.9c0.5,0.4,1.2,0.7,1.8,0.8c0.1,0,0.3,0,0.4-0.1c0.1-0.1,0.2-0.2,0.2-0.4v-8.1C65.9,17.4,64.6,16.1,61.7,16.1
		 M63.1,25.9c-1,0.3-2,0.4-3.1,0.5c-1.1,0-1.2-1-1.2-1.6c0-1,0.5-1.5,1.6-1.6l2.7-0.1V25.9z"/>
	<path d="M40.7,16.1c-1.5,0.1-3,0.2-4.5,0.5c-0.2,0-0.4,0.2-0.4,0.5l0.1,1.5c0,0.1,0.1,0.2,0.2,0.3c0.1,0.1,0.2,0.1,0.3,0.1
		c1-0.1,2.9-0.2,4.2-0.2c0.7-0.1,1.4,0.4,1.5,1.2c0,0.1,0,0.2,0,0.3V21l-3,0.2c-2.9,0.2-4.1,1.3-4.1,3.7c0,2.5,1.3,3.9,3.5,3.9
		c1.4-0.1,2.7-0.4,4-0.9c0.5,0.4,1.2,0.7,1.8,0.8c0.3,0,0.5-0.1,0.5-0.4c0,0,0,0,0-0.1v-8.1C44.9,17.4,43.5,16.1,40.7,16.1
		 M42.1,25.9c-1,0.3-2,0.4-3.1,0.5c-1.1,0-1.2-1-1.2-1.6c0-1,0.5-1.5,1.6-1.6l2.7-0.1V25.9z"/>
	<path d="M53.9,16.3c-1.2,0.1-2.3,0.6-3.2,1.3v-0.8c0-0.3-0.2-0.5-0.5-0.5c0,0,0,0,0,0h-1.9c-0.3,0-0.5,0.2-0.5,0.5c0,0,0,0,0,0
		v11.3c0,0.3,0.2,0.5,0.5,0.5c0,0,0,0,0,0h1.9c0.3,0,0.5-0.2,0.5-0.5c0,0,0,0,0,0v-7.8c0.9-0.8,2.1-1.3,3.3-1.5
		c0.2,0,0.4-0.2,0.4-0.5v-1.7c0-0.1-0.1-0.2-0.1-0.3C54.2,16.3,54,16.3,53.9,16.3"/>
</g>
</svg>
